<svg width="26" height="22" viewBox="0 0 26 22" fill="none" xmlns="http://www.w3.org/2000/svg">
<path d="M12.8777 19.7774C6.95102 19.7774 2.14648 15.8292 2.14648 10.9588C2.14648 6.08847 6.95102 2.14026 12.8777 2.14026C18.8044 2.14026 23.609 6.08847 23.609 10.9588C23.609 15.8292 18.8044 19.7774 12.8777 19.7774ZM21.4627 10.9588C21.4627 7.06254 17.6191 3.90397 12.8777 3.90397C8.13636 3.90397 4.29273 7.06254 4.29273 10.9588C4.29273 14.8551 8.13636 18.0137 12.8777 18.0137C14.4554 18.0137 15.9338 17.6639 17.2041 17.0537L16.1225 15.5299C15.1698 15.9877 14.0611 16.25 12.8777 16.25C9.3217 16.25 6.43898 13.881 6.43898 10.9588C6.43898 8.03661 9.3217 5.66769 12.8777 5.66769C16.4337 5.66769 19.3165 8.03661 19.3165 10.9588V11.8407C19.3165 12.3277 18.836 12.7225 18.2433 12.7225C17.6506 12.7225 17.1702 12.3277 17.1702 11.8407V8.31326H15.717C14.9603 7.76443 13.9663 7.4314 12.8777 7.4314C10.507 7.4314 8.58522 9.01069 8.58522 10.9588C8.58522 12.9069 10.507 14.4863 12.8777 14.4863C14.0007 14.4863 15.023 14.1319 15.7879 13.5518C16.3785 14.1235 17.2594 14.4863 18.2433 14.4863C20.0214 14.4863 21.4627 13.3018 21.4627 11.8407V10.9588ZM12.8777 9.19512C14.0631 9.19512 15.024 9.98473 15.024 10.9588C15.024 11.9329 14.0631 12.7225 12.8777 12.7225C11.6923 12.7225 10.7315 11.9329 10.7315 10.9588C10.7315 9.98473 11.6923 9.19512 12.8777 9.19512Z" fill="#CF7745"/>
</svg>
