<svg width="165" height="33" viewBox="0 0 165 33" fill="none" xmlns="http://www.w3.org/2000/svg">
<path d="M16.5 0.0430908L20.2045 11.1495H32.1924L22.494 18.0136L26.1985 29.1199L16.5 22.2558L6.80154 29.1199L10.506 18.0136L0.807568 11.1495H12.7955L16.5 0.0430908Z" fill="#FF6B00"/>
<path d="M49.5 0.0430908L53.2045 11.1495H65.1924L55.494 18.0136L59.1985 29.1199L49.5 22.2558L39.8015 29.1199L43.506 18.0136L33.8076 11.1495H45.7955L49.5 0.0430908Z" fill="#FF6B00"/>
<path d="M82.5 0.0430908L86.2045 11.1495H98.1924L88.494 18.0136L92.1985 29.1199L82.5 22.2558L72.8015 29.1199L76.506 18.0136L66.8076 11.1495H78.7955L82.5 0.0430908Z" fill="#FF6B00"/>
<path d="M115.5 0.0430908L119.204 11.1495H131.192L121.494 18.0136L125.198 29.1199L115.5 22.2558L105.802 29.1199L109.506 18.0136L99.8076 11.1495H111.796L115.5 0.0430908Z" fill="#FF6B00"/>
<path d="M148.5 0.0430908L152.204 11.1495H164.192L154.494 18.0136L158.198 29.1199L148.5 22.2558L138.802 29.1199L142.506 18.0136L132.808 11.1495H144.796L148.5 0.0430908Z" fill="#FF6B00"/>
</svg>
