<svg width="165" height="33" viewBox="0 0 165 33" fill="none" xmlns="http://www.w3.org/2000/svg">
<path d="M16.5 0.784424L20.2045 11.8908H32.1924L22.494 18.7549L26.1985 29.8613L16.5 22.9971L6.80154 29.8613L10.506 18.7549L0.807568 11.8908H12.7955L16.5 0.784424Z" fill="#FF6B00"/>
<path d="M49.5 0.784424L53.2045 11.8908H65.1924L55.494 18.7549L59.1985 29.8613L49.5 22.9971L39.8015 29.8613L43.506 18.7549L33.8076 11.8908H45.7955L49.5 0.784424Z" fill="#FF6B00"/>
<path d="M82.5 0.784424L86.2045 11.8908H98.1924L88.494 18.7549L92.1985 29.8613L82.5 22.9971L72.8015 29.8613L76.506 18.7549L66.8076 11.8908H78.7955L82.5 0.784424Z" fill="#FF6B00"/>
<path d="M115.5 0.784424L119.204 11.8908H131.192L121.494 18.7549L125.198 29.8613L115.5 22.9971L105.802 29.8613L109.506 18.7549L99.8076 11.8908H111.796L115.5 0.784424Z" fill="#FF6B00"/>
<path d="M148.5 0.784424L152.204 11.8908H164.192L154.494 18.7549L158.198 29.8613L148.5 22.9971L138.802 29.8613L142.506 18.7549L132.808 11.8908H144.796L148.5 0.784424Z" fill="#FF6B00"/>
</svg>
