<svg width="26" height="22" viewBox="0 0 26 22" fill="none" xmlns="http://www.w3.org/2000/svg">
<g clip-path="url(#clip0_43_45)">
<path d="M19.7072 15.7908L12.8778 21.4028L6.04852 15.7908C2.27679 12.6912 2.27679 7.66604 6.04852 4.56655C9.82025 1.46707 15.9354 1.46707 19.7072 4.56655C23.4789 7.66604 23.4789 12.6912 19.7072 15.7908ZM12.8778 13.7061C15.2485 13.7061 17.1703 12.1268 17.1703 10.1787C17.1703 8.23051 15.2485 6.65123 12.8778 6.65123C10.5072 6.65123 8.58534 8.23051 8.58534 10.1787C8.58534 12.1268 10.5072 13.7061 12.8778 13.7061ZM12.8778 11.9424C11.6925 11.9424 10.7316 11.1528 10.7316 10.1787C10.7316 9.20459 11.6925 8.41494 12.8778 8.41494C14.0632 8.41494 15.0241 9.20459 15.0241 10.1787C15.0241 11.1528 14.0632 11.9424 12.8778 11.9424Z" fill="#CF7745"/>
</g>
<defs>
<clipPath id="clip0_43_45">
<rect width="25.755" height="21.1646" fill="white" transform="translate(0 0.478271)"/>
</clipPath>
</defs>
</svg>
