<svg width="26" height="22" viewBox="0 0 26 22" fill="none" xmlns="http://www.w3.org/2000/svg">
<path d="M22.5359 14.6015V17.7198C22.5359 18.1828 22.1004 18.5669 21.5385 18.5996C21.0691 18.6268 20.6862 18.6404 20.3897 18.6404C10.9069 18.6404 3.21973 12.3233 3.21973 4.53068C3.21973 4.28703 3.23631 3.97235 3.26947 3.58665C3.30919 3.1249 3.77661 2.76697 4.33992 2.76697H8.13474C8.41019 2.76697 8.64089 2.93842 8.66854 3.16363C8.69338 3.36581 8.71646 3.52813 8.7378 3.65061C8.95487 4.89641 9.39827 6.08219 10.0327 7.17893C10.1345 7.35496 10.0681 7.56567 9.87508 7.67897L7.55895 9.03856C8.96901 11.7452 11.6104 13.9158 14.9041 15.0746L16.5555 13.1746C16.6952 13.0141 16.9546 12.9589 17.1714 13.0434C18.5059 13.5643 19.9488 13.9283 21.4645 14.1062C21.6126 14.1237 21.8089 14.1425 22.0533 14.1628C22.3273 14.1855 22.5359 14.3751 22.5359 14.6015Z" fill="#CF7745"/>
</svg>
